<?xml version="1.0" standalone="no"?>
<!DOCTYPE svg PUBLIC "-//W3C//DTD SVG 20010904//EN"
 "http://www.w3.org/TR/2001/REC-SVG-20010904/DTD/svg10.dtd">
<svg version="1.0" xmlns="http://www.w3.org/2000/svg"
 width="737.000000pt" height="737.000000pt" viewBox="0 0 737.000000 737.000000"
 preserveAspectRatio="xMidYMid meet">
<metadata>
Created by potrace 1.11, written by Peter Selinger 2001-2013
</metadata>
<g transform="translate(0.000000,737.000000) scale(0.100000,-0.100000)"
fill="#000000" stroke="none">
<path d="M3459 7036 c-2 -2 -47 -6 -99 -10 -52 -4 -122 -11 -155 -16 -33 -5
-89 -12 -125 -15 -35 -4 -67 -8 -71 -10 -3 -3 -24 -7 -45 -10 -179 -23 -517
-110 -754 -192 -41 -15 -79 -30 -85 -33 -5 -4 -36 -17 -67 -28 -184 -68 -469
-238 -588 -352 -36 -34 -60 -59 -54 -56 6 3 36 8 68 11 31 4 67 8 79 10 19 4
74 9 217 21 59 4 406 4 445 0 17 -2 59 -7 95 -10 36 -3 76 -8 90 -11 14 -3 43
-7 64 -10 54 -7 233 -52 300 -75 46 -15 57 -16 66 -5 44 53 302 165 435 189
17 3 41 9 55 12 14 4 102 8 195 10 145 3 178 0 224 -15 60 -21 95 -45 125 -85
40 -53 28 -269 -27 -481 -21 -79 -55 -257 -62 -320 -3 -27 -7 -61 -10 -75 -2
-14 -6 -41 -9 -60 -2 -19 -16 -97 -30 -173 -27 -137 -27 -153 -1 -212 31 -69
92 -272 110 -366 45 -230 53 -316 50 -524 -9 -504 -183 -916 -535 -1266 -181
-179 -369 -312 -644 -455 -221 -114 -356 -161 -571 -199 -152 -26 -367 -36
-485 -21 -231 30 -453 112 -598 223 -20 15 -62 39 -92 54 -30 14 -79 40 -108
58 -63 37 -72 38 -67 9 3 -12 7 -53 10 -92 3 -39 7 -87 10 -106 2 -19 7 -64
10 -100 3 -36 8 -76 10 -90 2 -14 7 -54 11 -90 3 -36 8 -78 10 -95 2 -16 6
-55 9 -85 4 -30 8 -66 10 -80 2 -14 7 -43 9 -65 20 -157 56 -352 87 -472 56
-214 49 -327 -23 -388 -17 -15 -77 -49 -132 -77 -210 -105 -333 -205 -297
-241 21 -21 168 -26 361 -13 243 17 220 11 274 67 82 83 243 169 399 214 64
18 94 42 205 155 266 271 437 577 468 833 3 32 8 56 10 54 9 -8 16 -94 19
-222 5 -235 -34 -395 -144 -590 -37 -65 -70 -106 -147 -180 -115 -112 -191
-158 -332 -205 -281 -91 -430 -197 -428 -305 1 -26 5 -30 26 -29 36 2 180 15
215 19 17 2 68 7 114 10 46 4 94 9 105 11 43 10 243 12 296 3 30 -5 127 -10
215 -10 235 -1 402 25 548 87 97 41 125 61 256 188 126 122 143 139 306 291
194 181 302 290 441 447 18 19 45 55 60 79 16 24 34 49 40 56 6 6 17 25 23 42
l13 30 122 -6 c238 -11 687 -5 851 12 22 2 67 7 100 10 179 18 259 31 445 76
47 12 93 22 102 24 9 2 43 11 75 19 32 8 94 24 138 35 44 11 105 26 135 35 30
8 56 13 58 11 5 -4 -105 -86 -178 -131 -99 -62 -181 -102 -289 -138 -53 -18
-96 -37 -95 -42 12 -51 83 -269 111 -344 43 -114 74 -177 120 -248 43 -64 45
-105 8 -168 -46 -78 -218 -188 -357 -228 -31 -9 -70 -27 -87 -41 -29 -25 -81
-116 -81 -142 0 -11 35 -12 176 -8 97 2 222 7 278 10 55 3 139 8 186 10 47 3
114 7 150 10 36 2 106 7 155 10 50 2 135 8 190 11 99 7 135 8 250 4 183 -6
309 147 344 416 5 43 13 102 16 129 11 90 26 189 35 225 5 19 11 46 14 60 17
86 57 223 156 530 48 151 102 320 119 375 51 169 125 479 145 615 3 19 7 44
10 55 7 35 19 121 31 225 18 161 23 284 19 540 -3 151 -6 289 -8 305 -2 17 -7
59 -10 95 -6 61 -49 344 -61 400 -2 14 -7 39 -11 55 -24 120 -73 316 -111 445
-84 285 -154 451 -262 620 -162 255 -495 551 -836 745 -192 109 -270 151 -425
227 -96 47 -344 169 -550 271 -362 178 -510 239 -640 263 -25 4 -47 8 -50 9
-8 2 -73 15 -105 20 -16 3 -52 8 -80 11 -27 3 -63 8 -80 11 -35 6 -619 15
-626 9z"/>
<path d="M3417 6284 c-1 -1 -30 -4 -65 -7 -140 -14 -273 -63 -340 -127 l-32
-31 62 -42 c86 -57 244 -217 300 -302 25 -38 72 -123 106 -188 34 -65 83 -151
110 -193 55 -82 55 -82 67 18 3 24 7 54 10 68 3 14 7 41 10 60 3 19 13 69 22
110 8 41 17 84 19 95 2 11 17 83 33 160 16 77 32 154 35 170 3 17 9 44 12 60
18 77 2 125 -45 144 -20 8 -295 12 -304 5z"/>
<path d="M163 6264 c-48 -24 -58 -60 -58 -214 0 -117 3 -144 24 -200 30 -82
118 -250 131 -250 3 0 14 15 24 33 61 107 218 283 323 365 64 49 150 99 221
128 l54 22 -49 11 c-26 6 -66 14 -88 17 -22 3 -71 12 -110 19 -38 8 -83 17
-100 19 -16 3 -88 17 -160 32 -182 36 -177 35 -212 18z"/>
<path d="M1728 6195 c-2 -1 -43 -6 -93 -10 -49 -4 -103 -9 -120 -11 -16 -2
-55 -6 -85 -9 -30 -3 -66 -8 -80 -10 -14 -3 -43 -8 -65 -11 -94 -13 -241 -57
-303 -90 -235 -126 -469 -383 -604 -664 -86 -179 -129 -322 -173 -582 -27
-160 -31 -184 -45 -248 -32 -150 -44 -273 -43 -450 0 -122 10 -290 18 -320 2
-8 6 -26 9 -40 10 -61 40 -161 73 -244 100 -253 286 -484 524 -653 93 -66 263
-167 301 -178 12 -4 60 -32 105 -61 186 -122 388 -201 558 -219 136 -14 221
-8 400 30 8 1 73 20 105 30 3 1 14 5 25 10 109 43 174 66 255 90 297 87 543
238 782 482 327 332 492 723 491 1163 0 127 -9 213 -40 394 -11 68 -76 285
-114 384 -124 319 -353 707 -510 862 -183 182 -478 299 -869 346 -53 6 -496
14 -502 9z m688 -1991 c37 -18 74 -79 74 -123 0 -86 -61 -146 -147 -146 -172
1 -199 238 -33 285 31 9 64 4 106 -16z m-1530 -8 c84 -50 92 -163 16 -226 -88
-73 -225 -5 -224 111 1 56 38 109 92 130 27 11 85 3 116 -15z m779 -548 c67
-41 121 -108 184 -228 42 -80 53 -112 56 -158 6 -101 -56 -197 -140 -218 -16
-4 -57 -25 -90 -46 -155 -99 -186 -98 -307 6 -26 23 -74 55 -105 72 -36 19
-70 48 -88 74 -27 37 -30 50 -30 113 0 66 5 80 49 170 104 205 201 275 355
254 45 -5 82 -18 116 -39z"/>
</g>
</svg>
